<?xml version="1.0" encoding="UTF-8"?>
<!DOCTYPE svg PUBLIC "-//W3C//DTD SVG 1.1//EN" "http://www.w3.org/Graphics/SVG/1.1/DTD/svg11.dtd">
<!-- Creator: CorelDRAW -->
<svg xmlns="http://www.w3.org/2000/svg" xml:space="preserve" width="2048px" height="2048px" style="shape-rendering:geometricPrecision; text-rendering:geometricPrecision; image-rendering:optimizeQuality; fill-rule:evenodd; clip-rule:evenodd"
viewBox="0 0 2048 2048"
 xmlns:xlink="http://www.w3.org/1999/xlink">
 <defs>
  <style type="text/css">
   <![CDATA[
    .fil1 {fill:none}
    .fil0 {fill:#212121;fill-rule:nonzero}
   ]]>
  </style>
 </defs>
 <g id="Layer_x0020_1">
  <metadata id="CorelCorpID_0Corel-Layer"/>
  <path class="fil0" d="M891.565 1498.5c17.0516,4.55552 34.5697,-5.57363 39.1252,-22.6252 4.55552,-17.0516 -5.57363,-34.5697 -22.6252,-39.1252 -93.691,-25.1044 -173.079,-80.0646 -229.016,-152.965 -55.9689,-72.9414 -88.5296,-163.898 -88.5296,-260.945 0,-118.324 47.9575,-225.444 125.495,-302.98 77.5359,-77.5371 184.656,-125.495 302.98,-125.495 17.6728,0 32.0008,-14.328 32.0008,-32.0008 0,-17.6728 -14.328,-32.0008 -32.0008,-32.0008 -135.989,0 -259.109,55.1233 -348.231,144.246 -89.1225,89.1213 -144.246,212.242 -144.246,348.231 0,111.366 37.4339,215.834 101.782,299.694 64.3796,83.9009 155.645,147.128 263.266,175.965z"/>
  <path class="fil0" d="M1051 278.997c0,-17.6728 -14.328,-32.0008 -32.0008,-32.0008 -17.6728,0 -32.0008,14.328 -32.0008,32.0008l0 283.37c0,17.6728 14.328,32.0008 32.0008,32.0008 17.6728,0 32.0008,-14.328 32.0008,-32.0008l0 -283.37z"/>
  <path class="fil0" d="M1151.43 540.495c-17.0516,-4.55552 -34.5697,5.57363 -39.1252,22.6252 -4.55552,17.0516 5.57363,34.5697 22.6252,39.1252 93.6898,25.1044 173.078,80.0646 229.016,152.966 55.9689,72.9414 88.5296,163.898 88.5296,260.945 0,118.323 -47.9587,225.443 -125.495,302.979 -77.5359,77.5371 -184.657,125.495 -302.98,125.495 -17.6728,0 -32.0008,14.328 -32.0008,32.0008 0,17.6728 14.328,32.0008 32.0008,32.0008 135.989,0 259.109,-55.1233 348.231,-144.246 89.1213,-89.1213 144.246,-212.241 144.246,-348.229 0,-111.366 -37.4339,-215.834 -101.782,-299.694 -64.3796,-83.9032 -155.645,-147.129 -263.266,-175.967z"/>
  <path class="fil0" d="M992.002 1760c0,17.6728 14.328,32.0008 32.0008,32.0008 17.6728,0 32.0008,-14.328 32.0008,-32.0008l0 -283.37c0,-17.6728 -14.328,-32.0008 -32.0008,-32.0008 -17.6728,0 -32.0008,14.328 -32.0008,32.0008l0 283.37z"/>
 </g>
 <rect class="fil1" width="2048" height="2048"/>
</svg>
